<?xml version="1.0" standalone="no"?>
<!DOCTYPE svg PUBLIC "-//W3C//DTD SVG 20010904//EN"
 "http://www.w3.org/TR/2001/REC-SVG-20010904/DTD/svg10.dtd">
<svg version="1.0" xmlns="http://www.w3.org/2000/svg"
 width="288.000000pt" height="288.000000pt" viewBox="0 0 288.000000 288.000000"
 preserveAspectRatio="xMidYMid meet">
<metadata>
Created by potrace 1.10, written by Peter Selinger 2001-2011
</metadata>
<g transform="translate(0.000000,288.000000) scale(0.050000,-0.050000)"
fill="#000000" stroke="none">
<path d="M2340 5708 c-927 -163 -1873 -993 -2126 -1868 -137 -471 -127 -1065
22 -1318 60 -102 78 -82 82 90 6 244 46 264 88 43 18 -91 43 -217 57 -280 25
-112 24 -115 -28 -170 -105 -109 -221 -499 -174 -586 10 -20 19 -58 19 -84 0
-206 294 -497 536 -532 83 -12 92 -19 117 -93 134 -400 657 -728 1252 -783
154 -14 159 -20 70 -82 l-64 -45 62 0 c34 0 83 16 109 37 82 62 113 65 175 12
36 -30 84 -49 124 -49 l65 0 -58 50 c-32 27 -73 50 -92 50 -19 0 -36 19 -40
44 -5 40 -27 48 -220 79 -674 109 -1071 329 -1239 687 -58 124 -228 766 -208
786 48 47 168 -103 247 -309 119 -312 84 -298 729 -294 624 4 627 5 786 260
234 376 302 382 518 50 198 -304 178 -295 684 -314 713 -27 745 -15 876 317
48 120 97 211 127 235 62 49 110 51 97 4 -6 -19 -33 -139 -61 -266 -164 -742
-471 -1007 -1332 -1148 -276 -46 -280 -47 -280 -91 0 -29 -13 -40 -49 -40 -27
0 -74 -22 -105 -49 l-56 -50 58 0 c32 -1 88 21 124 49 82 62 98 62 181 -1 44
-34 87 -49 122 -45 l55 7 -66 35 c-80 44 -67 74 32 74 328 0 838 202 1078 427
116 108 266 347 266 423 0 14 40 29 99 36 508 60 748 824 378 1202 -42 43 -77
81 -77 84 0 3 9 30 21 60 11 30 34 127 51 216 52 274 50 268 68 222 8 -22 22
-98 30 -170 21 -190 33 -195 105 -44 135 283 123 891 -26 1335 -293 872 -1280
1693 -2169 1805 -231 29 -855 24 -1040 -8z m977 -2137 c134 -221 286 -632 315
-854 13 -96 12 -99 -49 -122 -83 -31 -80 -70 7 -86 135 -26 86 -188 -74 -239
-58 -19 -204 -80 -323 -135 -262 -121 -335 -122 -553 -8 -77 41 -219 100 -315
132 l-175 59 -6 89 c-6 87 -5 88 64 101 102 19 106 47 12 84 -82 33 -82 34
-70 116 49 312 237 777 375 927 40 43 55 45 384 45 l343 0 65 -109z m-1788
-764 c8 -50 18 -103 23 -116 9 -23 -130 -80 -148 -61 -13 12 81 270 97 270 8
0 21 -42 28 -93z m2811 -28 c51 -137 48 -148 -41 -129 -62 14 -63 15 -49 105
26 177 33 179 90 24z m-3230 -304 c53 -69 110 -136 126 -149 36 -30 -154 -121
-291 -140 -103 -14 -105 -1 -15 112 60 75 70 102 70 195 0 132 -6 133 110 -18z
m3674 24 c-8 -88 -3 -108 41 -155 49 -52 95 -128 95 -154 0 -20 -153 9 -216
41 -30 14 -79 36 -110 48 -54 20 -58 61 -6 61 14 0 25 12 25 26 0 29 148 234
168 234 7 0 9 -46 3 -101z m-2821 -72 c58 -52 45 -112 -15 -72 -24 16 -51 105
-33 105 7 0 28 -15 48 -33z m1917 12 c0 -41 -42 -99 -71 -99 -37 0 -36 10 3
71 34 51 68 65 68 28z m-2189 -40 c20 -33 8 -37 -162 -56 -156 -18 -251 2
-137 28 32 7 85 20 118 29 88 24 166 23 181 -1z m2638 -5 c115 -30 150 -76 47
-64 -36 5 -118 14 -181 21 -108 11 -133 25 -102 56 21 21 128 15 236 -13z
m-2759 -259 c-62 -35 -230 -197 -292 -281 -63 -87 -54 -141 53 -324 94 -160
119 -112 37 72 l-53 116 64 80 c73 93 217 212 235 195 7 -7 13 -42 14 -78 2
-51 11 -66 47 -71 25 -4 45 -19 45 -34 0 -15 -20 -30 -45 -34 -62 -8 -69 -107
-16 -223 22 -50 41 -103 42 -117 2 -79 45 -93 270 -90 l218 4 29 60 c16 33 32
128 36 210 3 83 11 162 16 178 23 61 -12 167 -42 128 -27 -35 -25 38 3 129 11
36 -12 31 -42 -10 -14 -19 -31 -30 -37 -24 -32 32 46 89 87 64 23 -14 62 -21
86 -14 54 13 179 -35 270 -104 119 -90 70 -309 -128 -569 -105 -139 -104 -138
-584 -137 -593 2 -585 -1 -671 260 -112 338 -90 482 83 559 169 76 391 120
275 55z m2868 -20 c263 -98 296 -240 148 -639 -77 -208 -68 -205 -615 -212
-523 -6 -519 -7 -634 144 -165 220 -232 473 -142 546 73 59 298 151 249 102
-38 -38 -30 -83 11 -66 102 42 100 47 90 -163 -9 -192 29 -367 80 -367 24 0
18 56 -7 64 -14 5 -10 17 10 34 28 24 32 19 32 -44 0 -39 -11 -75 -25 -81 -14
-5 -7 -11 15 -12 33 -1 35 -5 10 -21 -56 -37 14 -54 228 -55 243 -1 240 -3
270 125 40 174 26 268 -46 299 l-62 27 65 15 c73 16 82 51 41 161 -21 60 -19
69 25 106 28 23 38 41 22 41 -14 1 -53 -26 -87 -60 -89 -89 -91 -58 -2 40 85
95 111 96 324 16z m943 -121 c99 -231 56 -522 -104 -704 -108 -123 -332 -227
-324 -150 19 168 130 554 247 858 74 190 97 190 181 -4z m-4774 -26 c102 -268
251 -759 253 -833 1 -60 -187 28 -305 141 -201 193 -229 567 -62 821 38 58 46
49 114 -129z m1593 1 c0 -15 -9 -32 -20 -39 -11 -7 -20 -1 -20 13 0 18 -6 19
-22 3 -13 -13 -35 -18 -50 -12 -17 6 -28 -3 -28 -22 0 -18 -9 -32 -20 -32 -64
0 41 109 109 113 31 2 51 -8 51 -24z m1778 -44 c-8 -50 6 -70 22 -32 13 32 29
41 59 33 42 -11 58 -66 20 -66 -12 0 -16 8 -10 18 6 10 -3 23 -19 29 -36 14
-40 -29 -6 -63 19 -19 15 -24 -15 -24 -21 0 -30 -7 -19 -15 12 -9 -15 -52 -65
-105 -46 -49 -85 -79 -85 -65 0 14 16 42 35 62 64 67 90 126 67 149 -28 28
-29 94 -2 94 11 0 19 -7 18 -15z m-1865 -50 c-19 -14 -32 -45 -29 -69 3 -24
-2 -46 -12 -50 -10 -3 -20 14 -22 39 -3 45 64 137 86 116 6 -6 -4 -23 -23 -36z
m1819 -39 c8 -13 4 -27 -8 -31 -13 -5 -24 -21 -24 -37 0 -35 -40 -38 -41 -3 0
14 -10 9 -21 -11 -12 -20 -16 -49 -10 -65 13 -36 -16 -38 -44 -4 -22 27 60
144 84 120 7 -6 12 3 12 22 0 38 31 44 52 9z m-1935 -165 c-33 -34 -53 -42
-71 -28 -38 32 -99 1 -126 -63 -14 -33 -34 -54 -44 -47 -13 7 -15 -6 -6 -35
l14 -48 -34 46 c-45 62 45 180 140 183 33 1 74 10 90 21 61 39 85 21 37 -29z
m1737 -65 c-16 -17 -40 -25 -53 -17 -14 9 -6 27 24 51 51 42 76 13 29 -34z
m-1845 -41 c-56 -85 -146 -175 -160 -161 -7 8 15 41 49 74 34 33 64 72 67 86
6 29 35 55 62 56 10 0 1 -25 -18 -55z m1932 20 c-37 -63 -121 -155 -121 -133
0 12 18 38 41 59 22 20 36 47 31 61 -11 29 5 48 42 48 21 0 22 -9 7 -35z"/>
<path d="M4200 2070 c0 -35 110 -150 142 -150 23 0 38 -14 38 -37 0 -20 23
-57 50 -83 62 -58 62 -99 1 -240 -26 -60 -43 -114 -37 -120 34 -33 186 246
186 342 0 61 -224 271 -305 286 -41 8 -75 8 -75 2z"/>
<path d="M2532 954 c-29 -22 -33 -43 -22 -120 68 -447 713 -439 780 9 12 82 9
96 -27 115 -61 33 -685 29 -731 -4z m538 -133 c84 -32 99 -46 95 -85 -6 -52
-98 -143 -126 -125 -11 6 -19 2 -19 -10 0 -35 -232 -26 -269 10 -17 18 -31 26
-31 20 0 -31 -88 73 -90 107 -8 100 264 151 440 83z"/>
</g>
</svg>
