<?xml version="1.0" standalone="no"?>
<!DOCTYPE svg PUBLIC "-//W3C//DTD SVG 20010904//EN"
 "http://www.w3.org/TR/2001/REC-SVG-20010904/DTD/svg10.dtd">
<svg version="1.0" xmlns="http://www.w3.org/2000/svg"
 width="288.000000pt" height="288.000000pt" viewBox="0 0 288.000000 288.000000"
 preserveAspectRatio="xMidYMid meet">

<g transform="translate(0.000000,288.000000) scale(0.100000,-0.100000)"
fill="#000000" stroke="none">
<path d="M1170 2854 c-412 -74 -854 -424 -1015 -804 -67 -156 -95 -304 -95
-492 0 -145 16 -225 58 -297 25 -43 27 -44 33 -21 4 14 7 44 8 66 1 54 11 104
21 104 4 0 14 -37 23 -82 9 -46 22 -109 28 -140 13 -57 13 -58 -13 -85 -15
-16 -36 -49 -47 -74 -29 -65 -53 -196 -41 -219 6 -10 10 -30 10 -43 0 -13 14
-51 31 -85 47 -94 142 -167 237 -181 42 -6 46 -9 58 -46 31 -91 89 -166 180
-231 111 -79 302 -148 447 -161 37 -3 67 -9 67 -12 0 -3 -15 -16 -33 -29 l-32
-22 31 0 c17 0 42 8 55 18 41 32 57 33 88 7 18 -16 41 -25 61 -25 l33 0 -29
25 c-16 14 -37 25 -46 25 -10 0 -18 9 -20 22 -3 21 -13 24 -110 40 -335 53
-536 164 -619 343 -30 62 -114 383 -104 393 2 3 22 -6 42 -20 33 -22 44 -40
81 -135 60 -156 42 -148 364 -147 316 2 307 -1 407 150 109 164 139 165 246 5
99 -148 91 -144 299 -155 96 -5 222 -5 282 -1 98 7 110 9 134 34 14 14 43 70
65 124 23 60 48 106 63 118 31 24 55 25 49 2 -3 -10 -15 -63 -27 -118 -63
-285 -117 -374 -290 -469 -88 -48 -252 -100 -380 -121 -136 -21 -140 -23 -140
-46 0 -14 -7 -19 -24 -19 -14 0 -38 -11 -53 -25 l-28 -24 29 -1 c16 0 44 11
62 25 41 31 47 31 89 -1 22 -17 43 -24 62 -22 l28 3 -33 18 c-40 22 -33 37 16
37 54 0 176 25 259 54 183 62 316 164 378 288 19 39 35 76 35 83 0 7 20 15 49
18 100 12 194 85 247 193 26 53 29 68 28 154 -2 116 -28 196 -86 254 -21 22
-38 40 -38 42 0 1 5 15 10 30 6 15 18 64 26 108 26 137 25 134 34 111 4 -11
11 -49 15 -85 4 -36 10 -70 14 -77 4 -7 20 16 38 55 43 88 56 202 43 362 -15
183 -43 295 -111 437 -98 208 -330 457 -544 585 -149 89 -281 146 -410 175
-96 21 -489 26 -595 7z m489 -1068 c67 -111 142 -316 157 -427 7 -49 6 -50
-25 -62 -41 -15 -39 -35 4 -43 28 -5 35 -11 35 -29 0 -55 -15 -71 -97 -99 -43
-16 -109 -44 -148 -65 -101 -52 -160 -51 -275 6 -47 23 -119 53 -160 67 l-75
25 -3 44 c-3 44 -2 45 32 51 51 10 53 25 6 43 -41 16 -41 17 -35 57 26 161
118 389 188 464 20 21 27 22 192 22 l171 0 33 -54z m-892 -392 l10 -56 -35
-15 c-19 -8 -36 -12 -39 -9 -7 7 38 136 47 136 4 0 11 -25 17 -56z m1403 -4
c13 -34 20 -63 17 -66 -3 -3 -20 -3 -37 1 l-32 7 7 51 c12 85 16 86 45 7z
m-1615 -152 c27 -35 55 -68 63 -75 12 -10 5 -16 -44 -38 -62 -27 -144 -44
-144 -29 0 5 16 29 35 53 30 38 35 51 35 97 0 30 2 54 4 54 1 0 25 -28 51 -62z
m1838 12 c-5 -45 -3 -54 19 -78 24 -26 48 -64 48 -77 0 -9 -70 5 -105 20 -17
8 -43 18 -58 24 -27 11 -29 31 -3 31 7 0 13 6 13 13 0 15 74 117 85 117 4 0 4
-23 1 -50z m-1411 -37 c28 -26 22 -56 -8 -35 -12 8 -26 52 -16 52 3 0 14 -7
24 -17z m958 6 c0 -20 -21 -49 -35 -49 -19 0 -19 5 1 35 17 26 34 33 34 14z
m-1095 -20 c11 -16 5 -18 -81 -28 -77 -8 -125 1 -68 14 16 4 43 11 59 15 44
12 83 12 90 -1z m1318 -2 c45 -12 67 -34 29 -30 -9 1 -47 5 -84 8 -64 6 -77
12 -61 28 10 11 63 8 116 -6z m-1378 -130 c-31 -17 -115 -98 -146 -140 l-28
-39 18 -46 c24 -60 60 -122 72 -122 15 0 11 19 -17 81 l-26 58 32 39 c37 47
109 107 117 98 3 -3 6 -20 7 -38 1 -26 6 -34 24 -36 12 -2 22 -10 22 -17 0 -7
-10 -15 -22 -17 -31 -4 -35 -53 -10 -110 11 -24 21 -49 24 -57 3 -9 15 -3 42
22 21 20 35 41 31 47 -3 5 -4 10 -1 10 2 0 12 3 22 7 16 6 15 4 -2 -26 -10
-18 -33 -45 -50 -61 -18 -15 -29 -32 -25 -38 4 -7 48 -10 116 -9 l110 2 14 30
c8 17 16 64 18 105 2 41 5 81 8 89 3 7 3 29 -1 48 -6 31 -7 32 -20 16 -12 -16
-13 -14 -8 17 3 19 7 41 10 48 5 18 -7 15 -22 -5 -7 -10 -15 -15 -18 -12 -3 3
1 14 8 25 13 16 18 17 36 6 11 -7 30 -10 43 -7 26 7 89 -17 135 -51 28 -22 32
-31 32 -69 0 -88 -109 -266 -171 -279 -51 -10 -391 -7 -450 4 -30 6 -59 17
-65 25 -20 27 -66 179 -71 236 -7 75 12 111 75 139 84 38 195 60 137 27z
m1451 -18 c62 -26 74 -35 89 -69 22 -48 17 -95 -21 -211 -35 -104 -48 -120
-110 -130 -82 -13 -435 -11 -464 4 -31 15 -90 93 -124 163 -32 65 -36 149 -8
171 26 21 124 65 130 58 4 -3 0 -10 -7 -14 -21 -14 -3 -33 19 -21 34 18 37 11
32 -88 -4 -80 -1 -106 13 -135 18 -38 41 -52 30 -18 -3 11 -2 22 3 25 16 10
20 -44 5 -60 -13 -12 -12 -14 4 -14 13 0 15 -2 5 -9 -27 -17 14 -28 108 -29
52 0 102 1 111 4 19 5 40 90 37 152 -1 38 -5 45 -32 57 l-31 13 33 7 c36 8 40
26 20 81 -11 30 -10 35 12 54 13 11 18 20 11 20 -7 0 -26 -14 -43 -30 -44 -45
-45 -30 -1 19 34 39 41 42 73 36 19 -4 67 -20 106 -36z m454 -52 c32 -73 33
-214 2 -273 -41 -80 -113 -144 -184 -164 -25 -8 -28 -6 -28 13 1 64 71 310
127 445 24 58 27 61 44 46 9 -8 27 -39 39 -67z m-2387 -13 c52 -134 126 -379
127 -416 0 -15 -40 -8 -77 13 -55 30 -110 87 -136 139 -18 37 -22 61 -21 135
1 89 13 136 50 194 19 29 24 24 57 -65z m797 0 c0 -9 -8 -14 -17 -12 -11 2
-17 -2 -15 -11 1 -7 -4 -18 -13 -25 -9 -6 -14 -21 -13 -33 2 -12 -1 -23 -6
-25 -18 -6 -13 42 6 62 17 18 17 21 3 26 -22 9 -3 29 29 30 17 1 26 -3 26 -12z
m920 6 c0 -5 -7 -10 -16 -10 -8 0 -12 5 -9 10 3 6 10 10 16 10 5 0 9 -4 9 -10z
m38 -9 c3 -8 -1 -12 -9 -9 -7 2 -15 10 -17 17 -3 8 1 12 9 9 7 -2 15 -10 17
-17z m-69 -18 c-4 -25 3 -36 11 -16 6 15 15 20 29 16 21 -5 30 -33 10 -33 -5
0 -8 4 -5 9 3 5 -1 11 -9 15 -18 7 -20 -15 -3 -32 9 -9 8 -12 -7 -12 -11 0
-16 -4 -10 -8 6 -4 -7 -25 -32 -52 -24 -25 -43 -39 -43 -32 0 6 8 20 18 30 31
34 45 63 33 75 -14 14 -14 47 -1 47 6 0 9 -3 9 -7z m-959 -13 c0 -5 -4 -10
-10 -10 -5 0 -10 5 -10 10 0 6 5 10 10 10 6 0 10 -4 10 -10z m57 -22 c-3 -8
-6 -5 -6 6 -1 11 2 17 5 13 3 -3 4 -12 1 -19z m-77 -3 c0 -2 -9 -9 -20 -15
-16 -9 -18 -8 -14 5 5 13 34 22 34 10z m56 -22 c-10 -10 -19 5 -10 18 6 11 8
11 12 0 2 -7 1 -15 -2 -18z m900 15 c4 -6 2 -14 -4 -16 -7 -2 -12 -10 -12 -18
0 -8 -4 -14 -10 -14 -5 0 -10 6 -10 13 0 8 -4 7 -10 -3 -5 -8 -7 -23 -4 -32 6
-21 -1 -23 -20 -6 -11 10 -10 17 7 40 11 15 24 25 29 22 4 -3 8 2 8 10 0 19
16 21 26 4z m-974 -39 c-16 -12 -62 -28 -62 -21 0 15 19 27 44 27 14 0 22 -3
18 -6z m7 -43 c-18 -18 -27 -21 -40 -13 -24 15 -48 2 -60 -33 -6 -16 -15 -27
-21 -24 -6 4 -8 -2 -3 -17 l7 -24 -17 23 c-16 22 -15 24 12 57 17 20 38 34 53
35 14 1 34 5 45 10 38 16 48 11 24 -14z m866 -26 c-10 -11 -22 -17 -27 -14 -5
3 -1 12 9 20 27 20 39 17 18 -6z m45 -17 c-21 -38 -58 -75 -64 -65 -3 5 6 17
20 27 14 9 23 22 20 30 -6 16 2 25 21 25 10 0 11 -4 3 -17z"/>
<path d="M1170 1010 c0 -13 18 -22 24 -11 3 5 -1 11 -9 15 -8 3 -15 1 -15 -4z"/>
<path d="M2107 1033 c-9 -9 43 -73 59 -73 8 0 18 -10 23 -22 5 -13 18 -32 30
-42 27 -24 26 -48 -4 -116 -13 -30 -22 -57 -19 -59 16 -16 94 121 94 165 0 31
-108 140 -146 147 -18 3 -34 3 -37 0z"/>
<path d="M1266 477 c-15 -11 -17 -21 -11 -60 21 -141 185 -213 305 -133 50 33
76 74 85 134 10 69 2 72 -195 72 -121 0 -171 -4 -184 -13z m90 -122 c4 -14 4
-29 0 -32 -3 -4 -6 2 -6 12 0 10 -8 24 -17 31 -17 13 -17 13 -1 14 11 0 20
-10 24 -25z m218 -4 c3 -5 -5 -8 -18 -7 -13 0 -22 4 -19 9 6 10 31 9 37 -2z
m-41 -38 c-7 -2 -19 -2 -25 0 -7 3 -2 5 12 5 14 0 19 -2 13 -5z m-58 -13 c-27
-12 -43 -12 -25 0 8 5 22 9 30 9 10 0 8 -3 -5 -9z"/>
</g>
</svg>
